<svg xmlns="http://www.w3.org/2000/svg" width="38.5" height="38.5" viewBox="0 0 38.5 38.5">
  <path id="Path_2" data-name="Path 2" d="M19.25,0A19.25,19.25,0,0,0,0,19.25H0a19.25,19.25,0,1,0,38.5,0h0A19.25,19.25,0,0,0,19.25,0ZM27.4,15.062A11.974,11.974,0,0,1,8.983,25.694a8.465,8.465,0,0,0,6.231-1.74,4.218,4.218,0,0,1-3.935-2.923,4.283,4.283,0,0,0,1.9-.071A4.216,4.216,0,0,1,9.8,16.782a4.183,4.183,0,0,0,1.912.526,4.222,4.222,0,0,1-1.3-5.624,11.966,11.966,0,0,0,8.679,4.4A4.214,4.214,0,0,1,26.26,12.24a8.364,8.364,0,0,0,2.671-1.022,4.2,4.2,0,0,1-1.851,2.327,8.47,8.47,0,0,0,2.418-.658A8.084,8.084,0,0,1,27.4,15.062Z" fill="#0062ab"/>
</svg>
